<?xml version="1.0" encoding="UTF-8" standalone="no"?><!DOCTYPE svg PUBLIC "-//W3C//DTD SVG 1.1//EN" "http://www.w3.org/Graphics/SVG/1.1/DTD/svg11.dtd"><svg width="100%" height="100%" viewBox="0 0 4207 2639" version="1.1" xmlns="http://www.w3.org/2000/svg" xmlns:xlink="http://www.w3.org/1999/xlink" xml:space="preserve" xmlns:serif="http://www.serif.com/" style="fill-rule:evenodd;clip-rule:evenodd;"><rect id="Prancheta1" x="0" y="0" width="4206.457" height="2638.495" style="fill:none;"/><path d="M958.957,213.244l0,83.333c0,9.199 -7.468,16.667 -16.667,16.667l-354.972,0c-9.199,0 -16.667,-7.468 -16.667,-16.667l0,-83.333c0,-9.199 7.468,-16.667 16.667,-16.667l354.972,0c9.199,0 16.667,7.468 16.667,16.667Z" style="fill:#444441;stroke:#b4b2a9;stroke-width:2.23px;"/><path d="M2989.412,1490.564l28.318,30.918l-41.725,4.104c12.107,-5.404 18.81,-22.914 13.407,-35.022Z"/><path d="M2107.981,1173.217c0,0 728.625,278.927 881.732,337.539" style="fill:none;stroke:#000;stroke-width:4.17px;stroke-linecap:round;stroke-linejoin:round;stroke-miterlimit:1.5;stroke-dasharray:20.833,20.833,0,0,0,0;"/><g><path d="M519.659,213.244l0,83.333c0,9.199 -7.468,16.667 -16.667,16.667l-354.972,0c-9.199,0 -16.667,-7.468 -16.667,-16.667l0,-83.333c0,-9.199 7.468,-16.667 16.667,-16.667l354.972,0c9.199,0 16.667,7.468 16.667,16.667Z" style="fill:#444441;stroke:#b4b2a9;stroke-width:2.23px;"/><text x="600.851px" y="271.578px" style="font-family:'ArialMT', 'Arial', sans-serif;font-size:50px;fill:#b4b2a9;">T<tspan x="625.851px 653.659px " y="271.578px 271.578px ">as</tspan>kGroup SO</text></g><g><path d="M1498.401,209.352l0,83.333c0,9.199 -7.468,16.667 -16.667,16.667l-374.405,0c-9.199,0 -16.667,-7.468 -16.667,-16.667l0,-83.333c0,-9.199 7.468,-16.667 16.667,-16.667l374.405,0c9.199,0 16.667,7.468 16.667,16.667Z" style="fill:#444441;stroke:#b4b2a9;stroke-width:2.29px;"/><text x="1127.784px" y="267.686px" style="font-family:'ArialMT', 'Arial', sans-serif;font-size:50px;fill:#b4b2a9;">ActionT<tspan x="1294.532px 1319.532px " y="267.686px 267.686px ">yp</tspan>e SO</text></g><g><path d="M1574.631,537.5l0,116.667c0,9.199 -7.468,16.667 -16.667,16.667l-526.864,0c-9.199,0 -16.667,-7.468 -16.667,-16.667l0,-116.667c0,-9.199 7.468,-16.667 16.667,-16.667l526.864,0c9.199,0 16.667,7.468 16.667,16.667Z" style="fill:#0c447c;stroke:#85b7eb;stroke-width:2.21px;"/><g transform="matrix(4.166667,0,0,4.166667,1294.531772,591.214498)"><text x="-59.353px" y="0px" style="font-family:'ArialMT', 'Arial', sans-serif;font-size:12px;fill:#85b7eb;">ActionEmitter / <tspan x="21.788px 28.673px 32.669px " y="0px 0px 0px ">Tri</tspan>gger</text><g transform="matrix(7.5,0,0,7.5,50.654297,9.375)"></g><text x="-50.654px" y="9.375px" style="font-family:'Arial-ItalicMT', 'Arial', sans-serif;font-style:italic;font-size:7.5px;fill:#85b7eb;">Publishes player action events</text></g></g><g><path d="M1996.865,537.5l0,116.667c0,9.199 -7.468,16.667 -16.667,16.667l-349.339,0c-9.199,0 -16.667,-7.468 -16.667,-16.667l0,-116.667c0,-9.199 7.468,-16.667 16.667,-16.667l349.339,0c9.199,0 16.667,7.468 16.667,16.667Z" style="fill:#0c447c;stroke:#85b7eb;stroke-width:2px;"/><g transform="matrix(4.166667,0,0,4.166667,1803.258096,594.014486)"><text x="-35.687px" y="0px" style="font-family:'ArialMT', 'Arial', sans-serif;font-size:12px;fill:#85b7eb;">PPEManager</text><g transform="matrix(7.5,0,0,7.5,37.858887,9.375)"></g><text x="-37.859px" y="9.375px" style="font-family:'Arial-ItalicMT', 'Arial', sans-serif;font-style:italic;font-size:7.5px;fill:#85b7eb;">T<tspan x="-33.834px -31.337px " y="9.375px 9.375px ">ra</tspan>cks worn PPE state</text></g></g><g><path d="M2660.359,537.5l0,116.667c0,9.199 -7.468,16.667 -16.667,16.667l-589.952,0c-9.199,0 -16.667,-7.468 -16.667,-16.667l0,-116.667c0,-9.199 7.468,-16.667 16.667,-16.667l589.952,0c9.199,0 16.667,7.468 16.667,16.667Z" style="fill:#0c447c;stroke:#85b7eb;stroke-width:2.25px;"/><g transform="matrix(4.166667,0,0,4.166667,2348.716629,591.397603)"><text x="-66.48px" y="0px" style="font-family:'ArialMT', 'Arial', sans-serif;font-size:12px;fill:#85b7eb;">T<tspan x="-59.596px -55.6px " y="0px 0px ">ra</tspan>iningSessionManager</text><g transform="matrix(7.5,0,0,7.5,66.287842,9.375)"></g><text x="-66.288px" y="9.375px" style="font-family:'Arial-ItalicMT', 'Arial', sans-serif;font-style:italic;font-size:7.5px;fill:#85b7eb;">Raises session start/paused/end events</text></g></g><g><path d="M1710.92,898.312l426.575,107.366l0,206.473l-426.575,107.366l-426.575,-107.366l0,-206.473l426.575,-107.366Z" style="fill:#fac775;fill-rule:nonzero;stroke:#ba7517;stroke-width:8.04px;"/><text x="1585.078px" y="1091.197px" style="font-family:'ArialMT', 'Arial', sans-serif;font-size:58.333px;fill:#412402;">EventBus</text><g transform="matrix(41.666667,0,0,41.666667,1978.615998,1157.864128)"></g><text x="1441.222px" y="1157.864px" style="font-family:'Arial-ItalicMT', 'Arial', sans-serif;font-style:italic;font-size:41.667px;fill:#633806;">Routes typed event payloads</text></g><text x="202.203px" y="271.578px" style="font-family:'ArialMT', 'Arial', sans-serif;font-size:50px;fill:#b4b2a9;">SafetyT<tspan x="368.951px 396.759px " y="271.578px 271.578px ">as</tspan>k</text><g><path d="M1219.481,1560.982l0,85.677c0,9.199 -7.468,16.667 -16.667,16.667l-590.813,0c-9.199,0 -16.667,-7.468 -16.667,-16.667l0,-85.677c0,-9.199 7.468,-16.667 16.667,-16.667l590.813,0c9.199,0 16.667,7.468 16.667,16.667Z" style="fill:#3c3489;stroke:#afa9ec;stroke-width:2.45px;"/><g transform="matrix(4.166667,0,0,4.166667,905.943026,1600.765685)"><text x="-60.369px" y="0px" style="font-family:'ArialMT', 'Arial', sans-serif;font-size:12px;fill:#afa9ec;">ScoreManagerAdapter</text><g transform="matrix(7.5,0,0,7.5,69.20105,9.375)"></g><text x="-69.201px" y="9.375px" style="font-family:'Arial-ItalicMT', 'Arial', sans-serif;font-style:italic;font-size:7.5px;fill:#afa9ec;">MB wrapper<tspan x="-29.185px -27.101px " y="9.375px 9.375px ">, </tspan>owns ScoreRuleEngineCore</text></g></g><g><path d="M1705.097,1508.287l-18.75,37.5l-18.75,-37.5c9.375,9.375 28.125,9.375 37.5,0Z"/><path d="M1686.347,1310.272l0,205.515" style="fill:none;stroke:#000;stroke-width:4.17px;stroke-linecap:round;stroke-linejoin:round;stroke-miterlimit:1.5;stroke-dasharray:20.833,20.833,0,0,0,0;"/><path d="M1745.097,1347.772l-18.75,-37.5l-18.75,37.5c9.375,-9.375 28.125,-9.375 37.5,0Z"/><path d="M1726.347,1340.272l-0,205.515" style="fill:none;stroke:#000;stroke-width:4.17px;stroke-linecap:round;stroke-linejoin:round;stroke-miterlimit:1.5;stroke-dasharray:20.833,20.833,0,0,0,0;"/><path d="M2602.565,1507.661l22.543,35.35l-41.806,-3.175c12.859,-3.228 22.491,-19.315 19.263,-32.175Z"/><path d="M2093.142,1224.527c0,0 399.841,239.382 506.227,303.074" style="fill:none;stroke:#000;stroke-width:4.17px;stroke-linecap:round;stroke-linejoin:round;stroke-miterlimit:1.5;stroke-dasharray:20.833,20.833,0,0,0,0;"/><path d="M2089.051,1239.233l-41.81,-3.126l22.585,35.323c-3.243,-12.855 6.369,-28.954 19.224,-32.197Z"/><path d="M2073,1251.487c104.11,62.161 488.256,291.524 488.256,291.524" style="fill:none;stroke:#000;stroke-width:4.17px;stroke-linecap:round;stroke-linejoin:round;stroke-miterlimit:1.5;stroke-dasharray:20.833,20.833,0,0,0,0;"/><path d="M2133.143,1501.514l4.351,41.7l-35.971,-21.539c12.945,2.865 28.755,-7.216 31.62,-20.161Z"/><path d="M1955.989,1258.546c0,0 120.938,189.676 165.377,259.372" style="fill:none;stroke:#000;stroke-width:4.17px;stroke-linecap:round;stroke-linejoin:round;stroke-miterlimit:1.5;stroke-dasharray:20.833,20.833,0,0,0,0;"/><path d="M1412.905,1265.334l41.882,1.931l-26.674,32.347c4.768,-12.371 -2.836,-29.51 -15.208,-34.278Z"/><path d="M901.497,1544.315c0,0 324.907,-174.331 525.868,-264.883" style="fill:none;stroke:#000;stroke-width:4.17px;stroke-linecap:round;stroke-linejoin:round;stroke-miterlimit:1.5;stroke-dasharray:20.833,20.833,0,0,0,0;"/><path d="M2588.394,876.9l41.44,6.369l-29.959,29.33c6.055,-11.795 0.314,-29.645 -11.481,-35.699Z"/><path d="M2137.494,1041.602c0,0 358.752,-115.373 463.78,-149.149" style="fill:none;stroke:#000;stroke-width:4.17px;stroke-linecap:round;stroke-linejoin:round;stroke-miterlimit:1.5;stroke-dasharray:20.833,20.833,0,0,0,0;"/><path d="M2590.674,1026.624l39.16,14.978l-35.478,22.341c8.409,-10.25 6.568,-28.91 -3.682,-37.319Z"/><path d="M2137.494,1090.175c0,0 355.837,-35.106 462.485,-45.627" style="fill:none;stroke:#000;stroke-width:4.17px;stroke-linecap:round;stroke-linejoin:round;stroke-miterlimit:1.5;stroke-dasharray:20.833,20.833,0,0,0,0;"/><path d="M2501.018,1189.959l34.271,24.152l-39.884,12.925c10.673,-7.866 13.48,-26.405 5.614,-37.077Z"/><path d="M2137.494,1153.884c0,0 275.855,41.765 368.132,55.736" style="fill:none;stroke:#000;stroke-width:4.17px;stroke-linecap:round;stroke-linejoin:round;stroke-miterlimit:1.5;stroke-dasharray:20.833,20.833,0,0,0,0;"/><path d="M2177.151,1103.038l-39.656,13.609l34.681,23.559c-8.048,-10.536 -5.561,-29.12 4.975,-37.169Z"/><path d="M2167.229,1120.628c92.349,12.361 368.059,49.265 368.059,49.265" style="fill:none;stroke:#000;stroke-width:4.17px;stroke-linecap:round;stroke-linejoin:round;stroke-miterlimit:1.5;stroke-dasharray:20.833,20.833,0,0,0,0;"/><path d="M1377.419,2412.923l-18.75,-37.5l-18.75,37.5c9.375,-9.375 28.125,-9.375 37.5,0Z"/><path d="M1358.669,2405.423l0,16.954" style="fill:none;stroke:#000;stroke-width:4.17px;stroke-linecap:round;stroke-linejoin:round;stroke-miterlimit:1.5;"/><path d="M2181.668,2412.923l-18.75,-37.5l-18.75,37.5c9.375,-9.375 28.125,-9.375 37.5,0Z"/><path d="M2162.918,2405.423l0,16.954" style="fill:none;stroke:#000;stroke-width:4.17px;stroke-linecap:round;stroke-linejoin:round;stroke-miterlimit:1.5;"/></g><g><path d="M542.173,1559.464l0,88.714c0,9.199 -7.468,16.667 -16.667,16.667l-400,0c-9.199,0 -16.667,-7.468 -16.667,-16.667l0,-88.714c0,-9.199 7.468,-16.667 16.667,-16.667l400,0c9.199,0 16.667,7.468 16.667,16.667Z" style="fill:#3c3489;stroke:#afa9ec;stroke-width:1.77px;"/><g transform="matrix(4.166667,0,0,4.166667,324.578455,1598.896484)"><text x="-36.018px" y="0px" style="font-family:'ArialMT', 'Arial', sans-serif;font-size:12px;fill:#afa9ec;">T<tspan x="-30.018px -23.344px " y="0px 0px ">as</tspan>kManager</text><g transform="matrix(7.5,0,0,7.5,49.185791,9.375)"></g><text x="-49.186px" y="9.375px" style="font-family:'Arial-ItalicMT', 'Arial', sans-serif;font-style:italic;font-size:7.5px;fill:#afa9ec;">MB wrapper<tspan x="-9.17px -7.086px " y="9.375px 9.375px ">, </tspan>session lifecycle</text></g></g><g><path d="M1816.027,1560.636l0,86.37c0,9.199 -7.468,16.667 -16.667,16.667l-489.317,0c-9.199,0 -16.667,-7.468 -16.667,-16.667l0,-86.37c0,-9.199 7.468,-16.667 16.667,-16.667l489.317,0c9.199,0 16.667,7.468 16.667,16.667Z" style="fill:#3c3489;stroke:#afa9ec;stroke-width:2.18px;"/><path d="M1767.619,2272.387l0,86.37c0,9.199 -7.468,16.667 -16.667,16.667l-559.385,0c-9.199,0 -16.667,-7.468 -16.667,-16.667l0,-86.37c0,-9.199 7.468,-16.667 16.667,-16.667l559.385,0c9.199,0 16.667,7.468 16.667,16.667Z" style="fill:#085041;stroke:#5dcaa5;stroke-width:2.15px;"/><g transform="matrix(4.166667,0,0,4.166667,1468.989038,2310.998679)"><text x="-64.702px" y="0px" style="font-family:'ArialMT', 'Arial', sans-serif;font-size:12px;fill:#5dcaa5;">PPEComplianceAdapter</text><g transform="matrix(7.5,0,0,7.5,55.444336,9.375)"></g><text x="-55.444px" y="9.375px" style="font-family:'Arial-ItalicMT', 'Arial', sans-serif;font-style:italic;font-size:7.5px;fill:#5dcaa5;">Bridges PPEManager→IInterface</text></g><g transform="matrix(4.166667,0,0,4.166667,1554.616727,1599.247436)"><text x="-48.032px" y="0px" style="font-family:'ArialMT', 'Arial', sans-serif;font-size:12px;fill:#afa9ec;">SafetyRuleEngine</text><g transform="matrix(7.5,0,0,7.5,57.116089,9.375)"></g><text x="-57.116px" y="9.375px" style="font-family:'Arial-ItalicMT', 'Arial', sans-serif;font-style:italic;font-size:7.5px;fill:#afa9ec;">MB wrapper<tspan x="-17.1px -15.016px " y="9.375px 9.375px ">, </tspan>injects dependencies</text></g></g><g><path d="M2448.245,2272.387l0,88.714c0,9.199 -7.468,16.667 -16.667,16.667l-492.327,0c-9.199,0 -16.667,-7.468 -16.667,-16.667l0,-88.714c0,-9.199 7.468,-16.667 16.667,-16.667l492.327,0c9.199,0 16.667,7.468 16.667,16.667Z" style="fill:#085041;stroke:#5dcaa5;stroke-width:2.03px;"/><g transform="matrix(4.166667,0,0,4.166667,2184.487259,2312.124927)"><text x="-56.127px" y="0px" style="font-family:'ArialMT', 'Arial', sans-serif;font-size:12px;fill:#5dcaa5;">T<tspan x="-49.242px -46.576px " y="0px 0px ">im</tspan>erSystemAdapter</text><g transform="matrix(7.5,0,0,7.5,55.19165,9.375)"></g><text x="-55.192px" y="9.375px" style="font-family:'Arial-ItalicMT', 'Arial', sans-serif;font-style:italic;font-size:7.5px;fill:#5dcaa5;">Bridges TimerSystem→IInterface</text></g></g><g><path d="M2407.744,1559.88l0,87.88c0,9.199 -7.468,16.667 -16.667,16.667l-502.329,0c-9.199,0 -16.667,-7.468 -16.667,-16.667l0,-87.88c0,-9.199 7.468,-16.667 16.667,-16.667l502.329,0c9.199,0 16.667,7.468 16.667,16.667Z" style="fill:#3c3489;stroke:#afa9ec;stroke-width:2.07px;"/><path d="M2852.148,1559.88l0,118.135c0,9.199 -7.468,16.667 -16.667,16.667l-386.654,0c-9.199,0 -16.667,-7.468 -16.667,-16.667l0,-118.135c0,-9.199 7.468,-16.667 16.667,-16.667l386.654,0c9.199,0 16.667,7.468 16.667,16.667Z" style="fill:#3c3489;stroke:#afa9ec;stroke-width:1.88px;"/><g transform="matrix(4.166667,0,0,4.166667,2136.702772,1599.247436)"><text x="-40.028px" y="0px" style="font-family:'ArialMT', 'Arial', sans-serif;font-size:12px;fill:#afa9ec;">SessionLogger</text><g transform="matrix(7.5,0,0,7.5,59.820557,9.375)"></g><text x="-59.821px" y="9.375px" style="font-family:'Arial-ItalicMT', 'Arial', sans-serif;font-style:italic;font-size:7.5px;fill:#afa9ec;">MB wrapper for SessionLoggerCore</text></g><g transform="matrix(4.166667,0,0,4.166667,2640.689534,1599.247436)"><text x="-40.354px" y="0px" style="font-family:'ArialMT', 'Arial', sans-serif;font-size:12px;fill:#afa9ec;">SafetyAnalyzer</text><text x="-35.017px" y="9.375px" style="font-family:'Arial-ItalicMT', 'Arial', sans-serif;font-style:italic;font-size:7.5px;fill:#afa9ec;">Listens for violations,</text><g transform="matrix(7.5,0,0,7.5,27.936401,18.75)"></g><text x="-27.936px" y="18.75px" style="font-family:'Arial-ItalicMT', 'Arial', sans-serif;font-style:italic;font-size:7.5px;fill:#afa9ec;">pattern detection</text></g></g><g><path d="M3112.41,837.435l0,91.667c0,9.199 -7.468,16.667 -16.667,16.667l-449.242,0c-9.199,0 -16.667,-7.468 -16.667,-16.667l0,-91.667c0,-9.199 7.468,-16.667 16.667,-16.667l449.242,0c9.199,0 16.667,7.468 16.667,16.667Z" style="fill:#3c3489;stroke:#afa9ec;stroke-width:1.9px;"/><g transform="matrix(4.166667,0,0,4.166667,2870.121003,878.832778)"><text x="-38.344px" y="0px" style="font-family:'ArialMT', 'Arial', sans-serif;font-size:12px;fill:#afa9ec;">UI Consumers</text><g transform="matrix(7.5,0,0,7.5,47.946167,9.375)"></g><text x="-47.946px" y="9.375px" style="font-family:'Arial-ItalicMT', 'Arial', sans-serif;font-style:italic;font-size:7.5px;fill:#afa9ec;">Listens, update HUD/popups</text></g></g><g><path d="M3112.41,995.769l0,91.667c0,9.199 -7.468,16.667 -16.667,16.667l-449.242,0c-9.199,0 -16.667,-7.468 -16.667,-16.667l0,-91.667c0,-9.199 7.468,-16.667 16.667,-16.667l449.242,0c9.199,0 16.667,7.468 16.667,16.667Z" style="fill:#3c3489;stroke:#afa9ec;stroke-width:1.9px;"/><path d="M3206.955,1148.496l0,91.667c0,9.199 -7.468,16.667 -16.667,16.667l-638.333,0c-9.199,0 -16.667,-7.468 -16.667,-16.667l0,-91.667c0,-9.199 7.468,-16.667 16.667,-16.667l638.333,0c9.199,0 16.667,7.468 16.667,16.667Z" style="fill:#3c3489;stroke:#afa9ec;stroke-width:2.23px;"/><g transform="matrix(4.166667,0,0,4.166667,2868.851472,1040.004246)"><text x="-43.022px" y="0px" style="font-family:'ArialMT', 'Arial', sans-serif;font-size:12px;fill:#afa9ec;">PhaseController</text><g transform="matrix(7.5,0,0,7.5,40.438843,9.375)"></g><text x="-40.439px" y="9.375px" style="font-family:'Arial-ItalicMT', 'Arial', sans-serif;font-style:italic;font-size:7.5px;fill:#afa9ec;">Zone transitions &amp; fades</text></g><g transform="matrix(4.166667,0,0,4.166667,2868.851472,1192.73157)"><text x="-63.595px" y="0px" style="font-family:'ArialMT', 'Arial', sans-serif;font-size:12px;fill:#afa9ec;">InspectionGateV<tspan x="24.237px 30.911px " y="0px 0px ">al</tspan>idator</text><g transform="matrix(7.5,0,0,7.5,73.586426,9.375)"></g><text x="-73.586px" y="9.375px" style="font-family:'Arial-ItalicMT', 'Arial', sans-serif;font-style:italic;font-size:7.5px;fill:#afa9ec;">Gate check and trigger ConsequenceEvents</text></g></g><g><path d="M1176.373,2077.706l0,83.333c0,9.199 -7.468,16.667 -16.667,16.667l-505.695,0c-9.199,0 -16.667,-7.468 -16.667,-16.667l0,-83.333c0,-9.199 7.468,-16.667 16.667,-16.667l505.695,0c9.199,0 16.667,7.468 16.667,16.667Z" style="fill:#085041;stroke:#5dcaa5;stroke-width:2.51px;"/><g transform="matrix(4.166667,0,0,4.166667,906.85829,2114.937237)"><text x="-59.701px" y="0px" style="font-family:'ArialMT', 'Arial', sans-serif;font-size:12px;fill:#5dcaa5;">ScoreRuleEngineCore</text><g transform="matrix(7.5,0,0,7.5,57.740479,9.375)"></g><text x="-57.74px" y="9.375px" style="font-family:'Arial-ItalicMT', 'Arial', sans-serif;font-style:italic;font-size:7.5px;fill:#5dcaa5;">Applies points rules on task events</text></g><path d="M1103.156,2320.426l0,94c0,9.199 -7.468,16.667 -16.667,16.667l-358.333,0c-9.199,0 -16.667,-7.468 -16.667,-16.667l0,-94c0,-9.199 7.468,-16.667 16.667,-16.667l358.333,0c9.199,0 16.667,7.468 16.667,16.667Z" style="fill:none;stroke:#ea580c;stroke-width:3.96px;stroke-dasharray:15.841,11.881;"/><g transform="matrix(4.166667,0,0,4.166667,907.236972,2365.904723)"><text x="-35.681px" y="0px" style="font-family:'ArialMT', 'Arial', sans-serif;font-size:12px;">ScoreService</text><g transform="matrix(7.5,0,0,7.5,34.394531,9.375)"></g><text x="-34.395px" y="9.375px" style="font-family:'Arial-ItalicMT', 'Arial', sans-serif;font-style:italic;font-size:7.5px;">Stateful score holder</text></g></g><path d="M564.871,2077.438l0,82.565c0,9.199 -7.468,16.667 -16.667,16.667l-445.396,0c-9.199,0 -16.667,-7.468 -16.667,-16.667l0,-82.565c0,-9.199 7.468,-16.667 16.667,-16.667l445.396,0c9.199,0 16.667,7.468 16.667,16.667Z" style="fill:#085041;stroke:#5dcaa5;stroke-width:2.01px;"/><g transform="matrix(4.166667,0,0,4.166667,325.957849,2111.427672)"><text x="-49.022px" y="0px" style="font-family:'ArialMT', 'Arial', sans-serif;font-size:12px;fill:#5dcaa5;">T<tspan x="-43.022px -36.349px " y="0px 0px ">as</tspan>kManagerCore</text><g transform="matrix(7.5,0,0,7.5,51.978149,9.375)"></g><text x="-51.978px" y="9.375px" style="font-family:'Arial-ItalicMT', 'Arial', sans-serif;font-style:italic;font-size:7.5px;fill:#5dcaa5;">T<tspan x="-48.085px -43.914px " y="9.375px 9.375px ">as</tspan>k sequencing  &amp; group logic</text></g><g><path d="M554.16,2320.426l0,94c0,9.199 -7.468,16.667 -16.667,16.667l-423.974,0c-9.199,0 -16.667,-7.468 -16.667,-16.667l0,-94c0,-9.199 7.468,-16.667 16.667,-16.667l423.974,0c9.199,0 16.667,7.468 16.667,16.667Z" style="fill:none;stroke:#ea580c;stroke-width:4.36px;stroke-dasharray:17.445,13.084;"/><g transform="matrix(3.781051,0,0,3.781051,325.506189,2362.852966)"><text x="-56.96px" y="0px" style="font-family:'ArialMT', 'Arial', sans-serif;font-size:13.224px;">RuntimeSafetyT<tspan x="36.382px 43.736px " y="0px 0px ">as</tspan>k</text><g transform="matrix(8.264898,0,0,8.264898,51.149143,10.331122)"></g><text x="-51.149px" y="10.331px" style="font-family:'Arial-ItalicMT', 'Arial', sans-serif;font-style:italic;font-size:8.265px;">Per<tspan x="-38.437px -35.685px " y="10.331px 10.331px ">-t</tspan>ask stateful data object</text></g></g><path d="M2418.415,2438.088l0,83.333c0,9.199 -7.468,16.667 -16.667,16.667l-432.667,0c-9.199,0 -16.667,-7.468 -16.667,-16.667l0,-83.333c0,-9.199 7.468,-16.667 16.667,-16.667l432.667,0c9.199,0 16.667,7.468 16.667,16.667Z" style="fill:none;stroke:#ea580c;stroke-width:4.58px;stroke-dasharray:18.317,13.737;"/><g transform="matrix(4.166667,0,0,4.166667,2184.121048,2475.404524)"><text x="-35.786px" y="0px" style="font-family:'ArialMT', 'Arial', sans-serif;font-size:12px;">IT<tspan x="-25.567px -22.901px " y="0px 0px ">im</tspan>erSource</text><g transform="matrix(7.5,0,0,7.5,50.445557,9.375)"></g><text x="-50.446px" y="9.375px" style="font-family:'Arial-ItalicMT', 'Arial', sans-serif;font-style:italic;font-size:7.5px;">Session-scoped elapsed clock</text></g><path d="M1781.633,2438.357l0,83.333c0,9.199 -7.468,16.667 -16.667,16.667l-587.414,0c-9.199,0 -16.667,-7.468 -16.667,-16.667l0,-83.333c0,-9.199 7.468,-16.667 16.667,-16.667l587.414,0c9.199,0 16.667,7.468 16.667,16.667Z" style="fill:none;stroke:#ea580c;stroke-width:4.85px;stroke-dasharray:19.393,14.545;"/><g transform="matrix(4.166667,0,0,4.166667,1468.586206,2475.404524)"><text x="-67.696px" y="0px" style="font-family:'ArialMT', 'Arial', sans-serif;font-size:12px;">IPPEComplianceChecker</text><g transform="matrix(7.5,0,0,7.5,52.316895,9.375)"></g><text x="-52.317px" y="9.375px" style="font-family:'Arial-ItalicMT', 'Arial', sans-serif;font-style:italic;font-size:7.5px;">PPE compliance query contract</text></g><path d="M2770.932,2078.501l0,83.333c0,9.199 -7.468,16.667 -16.667,16.667l-546.456,0c-9.199,0 -16.667,-7.468 -16.667,-16.667l0,-83.333c0,-9.199 7.468,-16.667 16.667,-16.667l546.456,0c9.199,0 16.667,7.468 16.667,16.667Z" style="fill:#085041;stroke:#5dcaa5;stroke-width:2.12px;"/><g transform="matrix(4.166667,0,0,4.166667,2481.037088,2115.594338)"><text x="-53.033px" y="0px" style="font-family:'ArialMT', 'Arial', sans-serif;font-size:12px;fill:#5dcaa5;">SessionLoggerCore</text><g transform="matrix(7.5,0,0,7.5,49.605103,9.375)"></g><text x="-49.605px" y="9.375px" style="font-family:'Arial-ItalicMT', 'Arial', sans-serif;font-style:italic;font-size:7.5px;fill:#5dcaa5;">Serializes events to JSON log</text></g><g><path d="M3815.897,1472.141l0,134.845c0,9.199 -7.468,16.667 -16.667,16.667l-763.418,0c-9.199,0 -16.667,-7.468 -16.667,-16.667l0,-134.845c0,-9.199 7.468,-16.667 16.667,-16.667l763.418,0c9.199,0 16.667,7.468 16.667,16.667Z" style="fill:#3c3489;stroke:#afa9ec;stroke-width:1.36px;"/><g><text x="3081.621px" y="1515.249px" style="font-family:'ArialMT', 'Arial', sans-serif;font-size:50px;fill:#afa9ec;">EvaluatorDashboardBootstrap</text><g transform="matrix(4.166667,0,0,4.166667,3416.911539,1559.417896)"><text x="-59.582px" y="0px" style="font-family:'Arial-ItalicMT', 'Arial', sans-serif;font-style:italic;font-size:8px;fill:#afa9ec;">Event Listener &amp; WS Broadcaster</text><g transform="matrix(8,0,0,8,51.134766,8)"></g><text x="-51.135px" y="8px" style="font-family:'Arial-ItalicMT', 'Arial', sans-serif;font-style:italic;font-size:8px;fill:#afa9ec;">manages / broadcasts JSON</text></g></g></g><g><path d="M3350.102,1733.412l0,130.092c0,9.199 -7.468,16.667 -16.667,16.667l-297.623,0c-9.199,0 -16.667,-7.468 -16.667,-16.667l0,-130.092c0,-9.199 7.468,-16.667 16.667,-16.667l297.623,0c9.199,0 16.667,7.468 16.667,16.667Z" style="fill:#085041;stroke:#5dcaa5;stroke-width:1.35px;"/><text x="3052.679px" y="1769.548px" style="font-family:'ArialMT', 'Arial', sans-serif;font-size:39.713px;fill:#5dcaa5;">MiniHttpServer</text><g transform="matrix(3.309419,0,0,3.309419,3184.987366,1824.213061)"><text x="-27.814px" y="0px" style="font-family:'Arial-ItalicMT', 'Arial', sans-serif;font-style:italic;font-size:9.443px;fill:#5dcaa5;">Serves Static</text><g transform="matrix(9.442745,0,0,9.442745,37.261494,9.442745)"></g><text x="-37.261px" y="9.443px" style="font-family:'Arial-ItalicMT', 'Arial', sans-serif;font-style:italic;font-size:9.443px;fill:#5dcaa5;">Dashboard HTML</text></g></g><g><path d="M3685.612,1733.412l0,130.092c0,9.199 -7.468,16.667 -16.667,16.667l-292.419,0c-9.199,0 -16.667,-7.468 -16.667,-16.667l0,-130.092c0,-9.199 7.468,-16.667 16.667,-16.667l292.419,0c9.199,0 16.667,7.468 16.667,16.667Z" style="fill:#085041;stroke:#5dcaa5;stroke-width:1.31px;"/><g transform="matrix(3.119578,0,0,3.119578,3519.836068,1759.012238)"><text x="-37.576px" y="0px" style="font-family:'ArialMT', 'Arial', sans-serif;font-size:12px;fill:#5dcaa5;">EvaluatorW<tspan x="24.229px 30.902px " y="0px 0px ">eb</tspan></text><text x="-36.015px" y="12px" style="font-family:'ArialMT', 'Arial', sans-serif;font-size:12px;fill:#5dcaa5;">SocketServer</text></g><g transform="matrix(3.119578,0,0,3.119578,3518.437101,1833.924232)"><text x="-27.323px" y="0px" style="font-family:'Arial-ItalicMT', 'Arial', sans-serif;font-style:italic;font-size:10.017px;fill:#5dcaa5;">Pushes</text><text x="8.947px" y="0px" style="font-family:'Arial-ItalicMT', 'Arial', sans-serif;font-style:italic;font-size:10.017px;fill:#5dcaa5;">Live</text><text x="-32.014px" y="10.285px" style="font-family:'Arial-ItalicMT', 'Arial', sans-serif;font-style:italic;font-size:10.017px;fill:#5dcaa5;">JSON</text><text x="-2.44px" y="10.285px" style="font-family:'Arial-ItalicMT', 'Arial', sans-serif;font-style:italic;font-size:10.017px;fill:#5dcaa5;">Updates</text></g></g><g><path d="M4153.84,956.578l0,91.49c0,9.199 -7.468,16.667 -16.667,16.667l-471.798,0c-9.199,0 -16.667,-7.468 -16.667,-16.667l0,-91.49c0,-9.199 7.468,-16.667 16.667,-16.667l471.798,0c9.199,0 16.667,7.468 16.667,16.667Z" style="fill:#72243e;stroke:#ed93b1;stroke-width:2.15px;"/><text x="3756.871px" y="994.522px" style="font-family:'ArialMT', 'Arial', sans-serif;font-size:46.809px;fill:#ed93b1;">PoseReporter</text><g transform="matrix(31.25,0,0,31.25,4135.802096,1036.798507)"></g><text x="3661.528px" y="1036.799px" style="font-family:'Arial-ItalicMT', 'Arial', sans-serif;font-style:italic;font-size:31.25px;fill:#ed93b1;">Writes head/hand pose to channel</text></g><g><path d="M4111.915,1143.814l0,75.887c0,9.199 -7.468,16.667 -16.667,16.667l-387.947,0c-9.199,0 -16.667,-7.468 -16.667,-16.667l0,-75.887c0,-9.199 7.468,-16.667 16.667,-16.667l387.947,0c9.199,0 16.667,7.468 16.667,16.667Z" style="fill:#444441;stroke:#b4b2a9;stroke-width:2.24px;"/><text x="3715.044px" y="1197.361px" style="font-family:'ArialMT', 'Arial', sans-serif;font-size:50px;fill:#b4b2a9;">PoseChannelSO</text></g><path d="M1708.135,2018.021l-4.307,41.704l-30.779,-28.468c12.081,5.463 29.624,-1.156 35.086,-13.236Z"/><path d="M1554.702,1664.427c0,0 104.485,276.964 138.537,367.229" style="fill:none;stroke:#000;stroke-width:4.17px;stroke-linecap:round;stroke-linejoin:round;stroke-miterlimit:1.5;"/><path d="M1378.673,2220.213l-22.295,35.507l-15.029,-39.14c8.423,10.239 27.084,12.056 37.324,3.633Z"/><path d="M1413.934,1664.427c0,0 -42.959,441.339 -54.649,561.434" style="fill:none;stroke:#000;stroke-width:4.17px;stroke-linecap:round;stroke-linejoin:round;stroke-miterlimit:1.5;"/><path d="M2153.569,2214.551l7.931,41.169l-37.694,-18.357c13.144,1.738 28.025,-9.668 29.763,-22.812Z"/><path d="M1708.297,1664.427c0,0 350.302,457.039 434.952,567.482" style="fill:none;stroke:#000;stroke-width:4.17px;stroke-linecap:round;stroke-linejoin:round;stroke-miterlimit:1.5;"/><g><path d="M4063.756,1741.132l0,75.887c0,9.199 -7.468,16.667 -16.667,16.667l-291.63,0c-9.199,0 -16.667,-7.468 -16.667,-16.667l0,-75.887c0,-9.199 7.468,-16.667 16.667,-16.667l291.63,0c9.199,0 16.667,7.468 16.667,16.667Z" style="fill:#72243e;stroke:#ed93b1;stroke-width:1.74px;"/><g transform="matrix(3.900741,0,0,3.900741,3899.148909,1776.602877)"><text x="-33.023px" y="0px" style="font-family:'ArialMT', 'Arial', sans-serif;font-size:12px;fill:#ed93b1;">PoseSender</text><g transform="matrix(8.011297,0,0,8.011297,22.036936,10.014122)"></g><text x="-22.037px" y="10.014px" style="font-family:'Arial-ItalicMT', 'Arial', sans-serif;font-style:italic;font-size:8.011px;fill:#ed93b1;">SO to JSON</text></g><path d="M3714.987,1791.905l-37.368,-19.012l37.63,-18.487c-9.44,9.309 -9.572,28.059 -0.263,37.499Z"/><path d="M3738.793,1773.322c0,0 -15.687,-0.11 -31.174,-0.218" style="fill:none;stroke:#000;stroke-width:4.17px;stroke-linecap:round;stroke-linejoin:round;stroke-miterlimit:1.5;"/></g><path d="M3101.754,1790.48l0,66.667" style="fill:none;fill-rule:nonzero;"/><path d="M344.256,1505.297l-18.75,37.5l-18.75,-37.5c9.375,9.375 28.125,9.375 37.5,0Z"/><path d="M325.506,313.244l0,1199.553" style="fill:none;stroke:#000;stroke-width:4.17px;stroke-linecap:round;stroke-linejoin:round;stroke-miterlimit:1.5;"/><path d="M403.486,1512.989l-29.484,29.808l-6.155,-41.472c5.994,11.826 23.814,17.658 35.64,11.664Z"/><path d="M776.42,313.244c0,0 -332.727,1016.62 -393.086,1201.041" style="fill:none;stroke:#000;stroke-width:4.17px;stroke-linecap:round;stroke-linejoin:round;stroke-miterlimit:1.5;"/><path d="M344.256,2023.383l-18.75,37.5l-18.75,-37.5c9.375,9.375 28.125,9.375 37.5,0Z"/><path d="M325.506,1663.326l0,367.557" style="fill:none;stroke:#000;stroke-width:4.17px;stroke-linecap:round;stroke-linejoin:round;stroke-miterlimit:1.5;"/><path d="M344.256,2208.843l-18.75,-37.5l-18.75,37.5c9.375,-9.375 28.125,-9.375 37.5,0Z"/><path d="M325.506,2201.343l0,102.417" style="fill:none;stroke:#000;stroke-width:4.17px;stroke-linecap:round;stroke-linejoin:round;stroke-miterlimit:1.5;"/><path d="M926.152,1700.825l-18.751,-37.499l-18.749,37.501c9.375,-9.375 28.125,-9.376 37.5,-0.001Z"/><path d="M907.401,1693.326c0.003,92.573 0.011,367.557 0.011,367.557" style="fill:none;stroke:#000;stroke-width:4.17px;stroke-linecap:round;stroke-linejoin:round;stroke-miterlimit:1.5;"/><path d="M926.102,2216.258l-18.737,-37.506l-18.763,37.494c9.378,-9.372 28.128,-9.365 37.5,0.013Z"/><path d="M907.355,2208.752c-0.013,36.985 -0.033,95.008 -0.033,95.008" style="fill:none;stroke:#000;stroke-width:4.17px;stroke-linecap:round;stroke-linejoin:round;stroke-miterlimit:1.5;"/><path d="M2469.168,2017.031l10.318,40.637l-38.7,-16.128c13.223,0.968 27.414,-11.286 28.382,-24.509Z"/><path d="M2139.913,1664.427c0,0 247.643,286.781 319.966,370.534" style="fill:none;stroke:#000;stroke-width:4.17px;stroke-linecap:round;stroke-linejoin:round;stroke-miterlimit:1.5;"/><path d="M1469.449,923.752l3.367,41.791l-35.453,-22.381c12.874,3.169 28.917,-6.536 32.086,-19.41Z"/><path d="M1294.532,670.833c0,0 119.365,197.314 162.756,269.041" style="fill:none;stroke:#000;stroke-width:4.17px;stroke-linecap:round;stroke-linejoin:round;stroke-miterlimit:1.5;stroke-dasharray:20.833,20.833,0,0,0,0;"/><path d="M1312.122,483.333l-18.75,37.5l-18.75,-37.5c9.375,9.375 28.125,9.375 37.5,0Z"/><path d="M1293.372,309.352l0,181.481" style="fill:none;stroke:#000;stroke-width:4.17px;stroke-linecap:round;stroke-linejoin:round;stroke-miterlimit:1.5;"/><path d="M1803.314,891.148l-22.232,35.547l-15.098,-39.113c8.441,10.224 27.106,12.007 37.33,3.567Z"/><path d="M1805.529,670.833c0,0 -15.143,158.497 -21.593,225.998" style="fill:none;stroke:#000;stroke-width:4.17px;stroke-linecap:round;stroke-linejoin:round;stroke-miterlimit:1.5;stroke-dasharray:20.833,20.833,0,0,0,0;"/><path d="M1993.993,960.689l-41.245,7.527l18.725,-37.512c-1.866,13.126 9.393,28.119 22.52,29.985Z"/><path d="M2348.717,670.833c0,0 -286.236,214.971 -371.98,279.367" style="fill:none;stroke:#000;stroke-width:4.17px;stroke-linecap:round;stroke-linejoin:round;stroke-miterlimit:1.5;stroke-dasharray:20.833,20.833,0,0,0,0;"/><path d="M3197.313,1679.246l-18.75,37.5l-18.75,-37.5c9.375,9.375 28.125,9.375 37.5,0Z"/><path d="M3178.563,1623.652l0,63.093" style="fill:none;stroke:#000;stroke-width:4.17px;stroke-linecap:round;stroke-linejoin:round;stroke-miterlimit:1.5;"/><path d="M3548.838,1679.246l-18.75,37.5l-18.75,-37.5c9.375,9.375 28.125,9.375 37.5,0Z"/><path d="M3530.088,1623.652l0,63.093" style="fill:none;stroke:#000;stroke-width:4.17px;stroke-linecap:round;stroke-linejoin:round;stroke-miterlimit:1.5;"/><path d="M3792.694,1686.965l-18.75,37.5l-18.75,-37.5c9.375,9.375 28.125,9.375 37.5,0Z"/><path d="M3773.944,1625.423l0,69.043" style="fill:none;stroke:#000;stroke-width:4.17px;stroke-linecap:round;stroke-linejoin:round;stroke-miterlimit:1.5;"/><path d="M3920.025,1686.965l-18.75,37.5l-18.75,-37.5c9.375,9.375 28.125,9.375 37.5,0Z"/><path d="M3901.275,1236.368l0,458.097" style="fill:none;stroke:#000;stroke-width:4.17px;stroke-linecap:round;stroke-linejoin:round;stroke-miterlimit:1.5;"/><path d="M3920.025,1089.647l-18.75,37.5l-18.75,-37.5c9.375,9.375 28.125,9.375 37.5,0Z"/><path d="M3901.275,1064.735l0,32.412" style="fill:none;stroke:#000;stroke-width:4.17px;stroke-linecap:round;stroke-linejoin:round;stroke-miterlimit:1.5;"/><path d="M1259.636,1131.001l24.709,-33.871l-41.923,0.555c12.632,4.026 21.239,20.684 17.213,33.316Z"/><path d="M1257.692,1110.901c-145.946,75.406 -841.712,434.886 -841.712,434.886" style="fill:none;stroke:#000;stroke-width:4.17px;stroke-linecap:round;stroke-linejoin:round;stroke-miterlimit:1.5;stroke-dasharray:20.833,20.833,0,0,0,0;"/><path d="M536.573,1545.47l-41.925,0.316l24.902,-33.73c-4.098,12.609 4.414,29.316 17.023,33.413Z"/><path d="M1284.345,1143.458c0,0 -625.015,318.427 -762.967,388.71" style="fill:none;stroke:#000;stroke-width:4.17px;stroke-linecap:round;stroke-linejoin:round;stroke-miterlimit:1.5;stroke-dasharray:20.833,20.833,0,0,0,0;"/><path d="M1993.723,2076.392l0,83.333c0,9.199 -7.468,16.667 -16.667,16.667l-546.456,0c-9.199,0 -16.667,-7.468 -16.667,-16.667l0,-83.333c0,-9.199 7.468,-16.667 16.667,-16.667l546.456,0c9.199,0 16.667,7.468 16.667,16.667Z" style="fill:#085041;stroke:#5dcaa5;stroke-width:2.12px;"/><g transform="matrix(4.166667,0,0,4.166667,1703.742793,2116.460847)"><text x="-61.037px" y="0px" style="font-family:'ArialMT', 'Arial', sans-serif;font-size:12px;fill:#5dcaa5;">SafetyRuleEngineCore</text><g transform="matrix(7.5,0,0,7.5,49.469604,9.375)"></g><text x="-49.47px" y="9.375px" style="font-family:'Arial-ItalicMT', 'Arial', sans-serif;font-style:italic;font-size:7.5px;fill:#5dcaa5;">V<tspan x="-44.745px -40.574px " y="9.375px 9.375px ">al</tspan>idates actions &amp; PPE rules</text></g><path d="M3228.729,758.269l0,509.288c0,11.498 -9.335,20.833 -20.833,20.833l-734.946,0c-11.498,0 -20.833,-9.335 -20.833,-20.833l0,-509.288c0,-11.498 9.335,-20.833 20.833,-20.833l734.946,0c11.498,0 20.833,9.335 20.833,20.833Z" style="fill:none;stroke:#afa9ec;stroke-width:5.01px;"/><path d="M2883.869,1417.921l0,269.563c0,11.498 -9.335,20.833 -20.833,20.833l-2781.605,0c-11.498,0 -20.833,-9.335 -20.833,-20.833l0,-269.563c0,-11.498 9.335,-20.833 20.833,-20.833l2781.605,0c11.498,0 20.833,9.335 20.833,20.833Z" style="fill:none;stroke:#afa9ec;stroke-width:4.28px;"/><path d="M2880.923,1886.111l0,668.271c0,11.498 -9.335,20.833 -20.833,20.833l-2778.659,0c-11.498,0 -20.833,-9.335 -20.833,-20.833l0,-668.271c0,-11.498 9.335,-20.833 20.833,-20.833l2778.659,0c11.498,0 20.833,9.335 20.833,20.833Z" style="fill:none;stroke:#5dcaa5;stroke-width:4.15px;"/><path d="M2705.305,404.663l0,286.668c0,11.498 -9.335,20.833 -20.833,20.833l-1684.583,0c-11.498,0 -20.833,-9.335 -20.833,-20.833l0,-286.668c0,-11.498 9.335,-20.833 20.833,-20.833l1684.583,0c11.498,0 20.833,9.335 20.833,20.833Z" style="fill:none;stroke:#85b7eb;stroke-width:4.18px;"/><path d="M1526.137,105.869l0,221.762c0,11.498 -9.335,20.833 -20.833,20.833l-1368.785,0c-11.498,0 -20.833,-9.335 -20.833,-20.833l0,-221.762c0,-11.498 9.335,-20.833 20.833,-20.833l1368.785,0c11.498,0 20.833,9.335 20.833,20.833Z" style="fill:none;stroke:#646464;stroke-width:4.06px;"/><path d="M4168.922,820.234l0,409.49c0,16.098 -13.069,29.167 -29.167,29.167l-476.961,0c-16.098,0 -29.167,-13.069 -29.167,-29.167l0,-409.49c0,-16.098 13.069,-29.167 29.167,-29.167l476.961,0c16.098,0 29.167,13.069 29.167,29.167Z" style="fill:none;stroke:#e38eab;stroke-width:4.17px;stroke-linejoin:round;stroke-miterlimit:2;"/><path d="M4107.702,1343.146l0,579.601c0,16.098 -13.069,29.167 -29.167,29.167l-1105.401,0c-16.098,0 -29.167,-13.069 -29.167,-29.167l0,-579.601c0,-16.098 13.069,-29.167 29.167,-29.167l1105.401,0c16.098,0 29.167,13.069 29.167,29.167Z" style="fill:none;stroke:#afa9ec;stroke-width:4.17px;stroke-linejoin:round;stroke-miterlimit:2;"/><g id="TitleText"><g transform="matrix(4.166667,0,0,4.166667,2713.281136,797.746047)"><rect x="-55.693" y="-10.863" width="111.387" height="13.406" style="fill:#fff;"/><text x="-55.693px" y="0px" style="font-family:'ArialMT', 'Arial', sans-serif;font-size:12px;">4.1 UI &amp; Game Logic</text></g><g transform="matrix(3.900741,0,0,3.900741,3833.244943,859.957895)"><rect x="-28.017" y="-10.863" width="56.033" height="13.406" style="fill:#fff;"/><rect x="-40.405" y="1.002" width="80.809" height="11.814" style="fill:#fff;"/><text x="-28.017px" y="0px" style="font-family:'ArialMT', 'Arial', sans-serif;font-size:12px;">Pose Data</text><g transform="matrix(10.574913,0,0,10.574913,40.404634,10.574913)"></g><text x="-40.405px" y="10.575px" style="font-family:'ArialMT', 'Arial', sans-serif;font-size:10.575px;">(~10 Hz tracking)</text></g><g transform="matrix(4.166667,0,0,4.166667,131.012383,1941.391505)"><rect x="-2.994" y="-10.863" width="230.766" height="13.406" style="fill:#fff;"/><g transform="matrix(12,0,0,12,227.771484,0)"></g><text x="-2.994px" y="0px" style="font-family:'ArialMT', 'Arial', sans-serif;font-size:12px;">5. Pure C# Domain Core (ports &amp; adapters)</text></g><g transform="matrix(4.166667,0,0,4.166667,118.254545,1453.559441)"><rect x="-2.663" y="-10.863" width="167.408" height="13.406" style="fill:#fff;"/><g transform="matrix(12,0,0,12,164.745117,0)"></g><text x="-2.663px" y="0px" style="font-family:'ArialMT', 'Arial', sans-serif;font-size:12px;">4. <tspan x="10.017px 18.021px " y="0px 0px ">Ad</tspan>apters &amp; Unity Consumers</text></g><g transform="matrix(4.166667,0,0,4.166667,148.424287,143.902152)"><rect x="-2.329" y="-10.863" width="113.402" height="13.406" style="fill:#fff;"/><g transform="matrix(12,0,0,12,61.708008,0)"></g><g transform="matrix(12,0,0,12,65.041992,0)"></g><g transform="matrix(12,0,0,12,111.073242,0)"></g><text x="-2.329px" y="0px" style="font-family:'ArialMT', 'Arial', sans-serif;font-size:12px;">1. Data Conﬁguration</text></g><g transform="matrix(4.166667,0,0,4.166667,1074.841792,447.478796)"><rect x="-1.995" y="-10.863" width="142.734" height="13.406" style="fill:#fff;"/><g transform="matrix(12,0,0,12,140.739258,0)"></g><text x="-1.995px" y="0px" style="font-family:'ArialMT', 'Arial', sans-serif;font-size:12px;">2. Unity Publishers / Inputs</text></g><g transform="matrix(4.166667,0,0,4.166667,1411.214193,828.435255)"><rect x="0" y="-10.863" width="158.742" height="13.406" style="fill:#fff;"/><g transform="matrix(12,0,0,12,158.742188,0)"></g><text x="0px" y="0px" style="font-family:'ArialMT', 'Arial', sans-serif;font-size:12px;">3. central spine (event-driven)</text></g><g transform="matrix(4.166667,0,0,4.166667,2974.819474,1380.939671)"><rect x="0" y="-10.863" width="162.094" height="13.406" style="fill:#fff;"/><text x="0px" y="0px" style="font-family:'ArialMT', 'Arial', sans-serif;font-size:12px;">6. network outputs &amp; evaluator</text></g></g></svg>